<?xml version="1.0" encoding="UTF-8"?>
<svg width="488px" height="191px" viewBox="0 0 488 191" version="1.1" xmlns="http://www.w3.org/2000/svg" xmlns:xlink="http://www.w3.org/1999/xlink">
    <!-- Generator: Sketch 62 (91390) - https://sketch.com -->
    <title>ui Logo</title>
    <desc>Created with Sketch.</desc>
    <g id="ui-Logo" stroke="none" stroke-width="1" fill="none" fill-rule="evenodd">
        <g fill-rule="nonzero">
            <polygon id="rect" fill="#3ABFBF" points="0 0.256042538 0 190.146687 191.533364 190.146687 191.533364 158.328004 175.49442 158.328004 175.49442 174.23758 16.0389439 174.23758 16.0389439 16.1651499 175.49442 16.1651499 175.49442 32.0747255 191.533364 32.0747255 191.533364 0.256042538"></polygon>
            <path d="M143.760355,76.0720318 L159.439792,76.0720318 L159.439792,113.036856 C159.439792,121.358356 161.909575,125.764517 169.193733,125.764517 C174.62839,125.764517 178.945786,123.683205 182.035376,119.645629 C185.24496,115.604775 186.847863,110.588364 186.847863,104.712078 L186.847863,76.0720318 L202.407306,76.0720318 L202.407306,138.494519 L187.342953,138.494519 L187.342953,131.152322 L187.714743,126.86512 L187.467671,126.86512 C184.133369,133.843415 175.616208,139.964644 165.612359,139.964644 C151.044514,139.964644 143.760355,132.007983 143.760355,116.218771 L143.760355,76.0720318 Z M214.606465,138.494706 L214.606465,76.0722194 L229.667038,76.0722194 L229.667038,83.4144159 L229.419021,87.8205766 L229.667038,87.8205766 C231.272775,84.5164245 233.987269,81.4567464 237.816188,78.7623753 C241.644635,75.9490451 246.333349,74.6020937 252.012716,74.6020937 C266.705751,74.6020937 273.991327,82.5587551 273.991327,98.3479668 L273.991327,138.494706 L258.31189,138.494706 L258.31189,101.529882 C258.31189,93.2060407 255.841163,88.7998797 248.435121,88.7998797 C243.000465,88.7998797 238.555989,90.7598908 235.22216,94.6752293 C231.888804,98.5938463 230.285901,103.487551 230.285901,109.241132 L230.285901,138.494706 L214.606465,138.494706 Z M314.577022,126.865542 C323.465972,126.865542 330.38023,120.255832 330.38023,107.160991 C330.38023,101.898233 329.021567,97.492072 326.303766,93.696629 C323.589273,89.9007176 319.761298,87.9430481 314.700794,87.9430481 C305.811843,87.9430481 298.897585,95.4084186 298.897585,107.283697 C298.897585,119.031586 305.19298,126.865542 314.577022,126.865542 Z M290.995508,83.660061 C296.30403,77.6615374 303.218288,74.6023281 311.612148,74.6023281 C319.884598,74.6023281 326.059054,77.2966992 330.008442,82.8044005 L330.256459,82.8044005 C330.132684,81.7028603 330.008442,80.4786144 330.008442,79.1307263 L330.008442,51.5922203 L345.564578,51.5922203 L345.564578,138.494472 L330.872488,138.494472 L330.872488,133.109945 L331.12003,129.191328 L330.872488,129.191328 C327.046875,135.681142 319.761298,139.964597 310.995647,139.964597 C302.598952,139.964597 295.808939,136.90211 290.748435,130.906864 C285.684152,124.907872 283.094376,116.951679 283.094376,107.283697 C283.094376,97.492072 285.684152,89.6590529 290.995508,83.660061 Z M398.992009,99.5726342 C398.868237,91.3714984 393.680652,86.3541513 386.398384,86.3541513 C378.496307,86.3541513 372.69364,91.6164412 371.210731,99.5726342 L398.992009,99.5726342 Z M363.556671,83.7824857 C369.607827,77.6612566 377.261415,74.6025153 386.770173,74.6025153 C395.534407,74.6025153 402.324893,77.4186556 407.262097,83.0499989 C412.201662,88.5567635 414.671445,95.6540172 414.671445,104.224675 C414.671445,105.567879 414.547674,107.651533 414.176354,110.21992 L370.842719,110.21992 C371.830539,120.625073 379.731199,126.742555 389.73174,126.742555 C396.027136,126.742555 401.953575,124.420048 407.757186,119.891649 L413.928336,131.029757 C407.633886,136.537459 397.880891,139.964317 388.620148,139.964317 C378.496307,139.964317 370.347156,136.782401 364.051762,130.538935 C357.754003,124.175104 354.667719,116.463855 354.667719,107.282947 C354.667719,97.6149648 357.629286,89.7810093 363.556671,83.7824857 Z M456.115755,126.865542 C465.004703,126.865542 471.918963,120.255832 471.918963,107.160991 C471.918963,101.898233 470.5603,97.492072 467.842499,93.696629 C465.128003,89.9007176 461.300031,87.9430481 456.239526,87.9430481 C447.350574,87.9430481 440.436318,95.4084186 440.436318,107.283697 C440.436318,119.031586 446.731711,126.865542 456.115755,126.865542 Z M432.534241,83.660061 C437.84276,77.6615374 444.757019,74.6023281 453.150879,74.6023281 C461.423331,74.6023281 467.597787,77.2966992 471.547171,82.8044005 L471.795188,82.8044005 C471.671417,81.7028603 471.547171,80.4786144 471.547171,79.1307263 L471.547171,51.5922203 L487.103308,51.5922203 L487.103308,138.494472 L472.411217,138.494472 L472.411217,133.109945 L472.658763,129.191328 L472.411217,129.191328 C468.585604,135.681142 461.300031,139.964597 452.534379,139.964597 C444.137685,139.964597 437.347671,136.90211 432.287166,130.906864 C427.222885,124.907872 424.633107,116.951679 424.633107,107.283697 C424.633107,97.492072 427.222885,89.6590529 432.534241,83.660061 Z M54.3626237,76.2301442 L70.0420602,76.2301442 L70.0420602,138.652631 L54.3626237,138.652631 L54.3626237,76.2301442 Z M54.3626237,51.7508475 L70.0420602,51.7508475 L70.0420602,65.5800484 L54.3626237,65.5800484 L54.3626237,51.7508475 Z M86.7976095,138.652584 L86.7976095,51.7503324 L137.170693,51.7503324 L137.170693,65.336932 L102.725064,65.336932 L102.725064,89.9394025 L131.739816,89.9394025 L131.739816,103.522724 L102.725064,103.522724 L102.725064,138.652584 L86.7976095,138.652584 Z" id="word" fill="#62697F"></path>
        </g>
    </g>
</svg>