<?xml version="1.0" encoding="UTF-8"?>
<svg width="11px" height="11px" viewBox="0 0 11 11" version="1.1" xmlns="http://www.w3.org/2000/svg" xmlns:xlink="http://www.w3.org/1999/xlink">
    <!-- Generator: Sketch 62 (91390) - https://sketch.com -->
    <title>icon Search</title>
    <desc>Created with Sketch.</desc>
    <g id="02-Workspace" stroke="none" stroke-width="1" fill="none" fill-rule="evenodd">
        <g id="Page-01" transform="translate(-966.000000, -13.000000)" fill="#8d99a5" fill-rule="nonzero">
            <g id="ui-Search" transform="translate(962.000000, 5.000000)">
                <g id="icon-Search" transform="translate(4.000000, 8.000000)">
                    <path d="M8.08021432,7.68516005 L10.5066961,10.1116418 C10.7134442,10.31839 10.7134442,10.653595 10.5066961,10.8603431 C10.2999479,11.0670913 9.96474288,11.0670913 9.75799472,10.8603431 L7.28880391,8.39115232 C6.53954237,8.91883328 5.62584101,9.2287063 4.63976493,9.2287063 C2.09600622,9.2287063 0.0338823546,7.16658245 0.0338823546,4.62282374 C0.0338823546,2.07906504 2.09600622,0.0169411772 4.63976493,0.0169411772 C7.18352362,0.0169411772 9.24564749,2.07906504 9.24564749,4.62282374 C9.24564749,5.79849609 8.80515802,6.8712866 8.08021432,7.68516005 Z M4.63976493,8.22282391 C6.62799011,8.22282391 8.23976508,6.61104894 8.23976508,4.62282374 C8.23976508,2.63459855 6.62799011,1.02282358 4.63976493,1.02282358 C2.65153972,1.02282358 1.03976475,2.63459855 1.03976475,4.62282374 C1.03976475,6.61104894 2.65153972,8.22282391 4.63976493,8.22282391 Z" id="Shape"></path>
                </g>
            </g>
        </g>
    </g>
</svg>